/vscmnt/brussel_pixiu_data/_data_brussel/112/vsc11236/PredSimResults/SUBJ11_Dhondt2024_3seg/SUBJ11_Dhondt2024_3seg_12581174.mot
version=1
nRows=4
nColumns=124
inDegrees=yes
endheader
                time	         pelvis_tilt	         pelvis_list	     pelvis_rotation	           pelvis_tx	           pelvis_ty	           pelvis_tz	       hip_flexion_r	     hip_adduction_r	      hip_rotation_r	        knee_angle_r	       ankle_angle_r	    subtalar_angle_r	         mtp_angle_r	       hip_flexion_l	     hip_adduction_l	      hip_rotation_l	        knee_angle_l	       ankle_angle_l	    subtalar_angle_l	         mtp_angle_l	    lumbar_extension	      lumbar_bending	     lumbar_rotation	          arm_flex_r	           arm_add_r	           arm_rot_r	        elbow_flex_r	          arm_flex_l	           arm_add_l	           arm_rot_l	        elbow_flex_l	glut_med1_r/activation	glut_med2_r/activation	glut_med3_r/activation	glut_min1_r/activation	glut_min2_r/activation	glut_min3_r/activation	semimem_r/activation	semiten_r/activation	bifemlh_r/activation	bifemsh_r/activation	    sar_r/activation	add_long_r/activation	add_brev_r/activation	add_mag1_r/activation	add_mag2_r/activation	add_mag3_r/activation	    tfl_r/activation	   pect_r/activation	   grac_r/activation	glut_max1_r/activation	glut_max2_r/activation	glut_max3_r/activation	iliacus_r/activation	  psoas_r/activation	quad_fem_r/activation	    gem_r/activation	   peri_r/activation	rect_fem_r/activation	vas_med_r/activation	vas_int_r/activation	vas_lat_r/activation	med_gas_r/activation	lat_gas_r/activation	 soleus_r/activation	tib_post_r/activation	flex_dig_r/activation	flex_hal_r/activation	tib_ant_r/activation	per_brev_r/activation	per_long_r/activation	per_tert_r/activation	ext_dig_r/activation	ext_hal_r/activation	glut_med1_l/activation	glut_med2_l/activation	glut_med3_l/activation	glut_min1_l/activation	glut_min2_l/activation	glut_min3_l/activation	semimem_l/activation	semiten_l/activation	bifemlh_l/activation	bifemsh_l/activation	    sar_l/activation	add_long_l/activation	add_brev_l/activation	add_mag1_l/activation	add_mag2_l/activation	add_mag3_l/activation	    tfl_l/activation	   pect_l/activation	   grac_l/activation	glut_max1_l/activation	glut_max2_l/activation	glut_max3_l/activation	iliacus_l/activation	  psoas_l/activation	quad_fem_l/activation	    gem_l/activation	   peri_l/activation	rect_fem_l/activation	vas_med_l/activation	vas_int_l/activation	vas_lat_l/activation	med_gas_l/activation	lat_gas_l/activation	 soleus_l/activation	tib_post_l/activation	flex_dig_l/activation	flex_hal_l/activation	tib_ant_l/activation	per_brev_l/activation	per_long_l/activation	per_tert_l/activation	ext_dig_l/activation	ext_hal_l/activation	 ercspn_r/activation	 ercspn_l/activation	 intobl_r/activation	 intobl_l/activation	 extobl_r/activation	 extobl_l/activation	
          0.00000000	         -2.92934786	         -0.86660772	          2.36382732	          0.00000000	          0.92072796	         -0.00233463	         29.17538482	          2.40824972	          0.57094969	        -12.66353355	          6.00419841	         -1.92226028	          0.15533469	        -15.66016671	          0.97984708	          8.74718398	         -8.33396142	         10.31252548	          7.72137295	         14.26240070	         -5.48552896	         -0.41721747	         -1.21170278	        -11.09446944	        -13.44986592	         17.45390956	         25.94632260	          7.43112809	        -13.46452114	         19.38717963	         48.61383963	          0.01000009	          0.01000023	          0.01000082	          0.01000010	          0.01000010	          0.01000023	          0.11101856	          0.02003951	          0.04093759	          0.01639007	          0.01520397	          0.06831580	          0.10095956	          0.10844591	          0.09981210	          0.05544457	          0.01000010	          0.01273861	          0.04110596	          0.01201039	          0.01201053	          0.05250653	          0.02323419	          0.02107011	          0.05576762	          0.01000005	          0.01000002	          0.01000001	          0.01968234	          0.01961731	          0.01674770	          0.01000000	          0.01000001	          0.00999999	          0.01201037	          0.01201036	          0.01201031	          0.27443728	          0.12765476	          0.09085664	          0.11299752	          0.30842601	          0.04682555	          0.20954314	          0.12995486	          0.07274606	          0.26318052	          0.26039309	          0.18252888	          0.01139178	          0.01000007	          0.01000006	          0.05354497	          0.09016726	          0.01000001	          0.01000001	          0.01000003	          0.01000014	          0.01000011	          0.35971757	          0.01000008	          0.01000009	          0.01732467	          0.01200982	          0.01000026	          0.24448091	          0.40627195	          0.01000002	          0.01000099	          0.05925529	          0.25142552	          0.01000019	          0.01000019	          0.01000018	          0.36481803	          0.40053046	          0.32105898	          0.26565023	          0.30480078	          0.34927168	          0.01488935	          0.01000004	          0.03788033	          0.01165094	          0.01357748	          0.01542663	          0.01442491	          0.00999999	          0.03876967	          0.00999999	          0.07444005	          0.01000000	
          0.01206231	         -2.93017703	         -1.09659884	          2.56067576	          0.01545751	          0.92035154	         -0.00208599	         28.48205025	          2.85420839	          0.67161676	        -11.90998439	          5.26819300	         -2.13528151	          0.17984705	        -15.74839730	          0.64339380	          8.52518816	         -9.79957632	          9.65183486	          8.37365117	         15.48959840	         -5.37185560	         -0.04557441	         -1.29394447	        -11.72596037	        -13.44994874	         17.31262145	         25.44040964	          7.15932163	        -13.47862785	         19.38133746	         49.79927180	          0.01201037	          0.01000018	          0.01000002	          0.01201038	          0.01201036	          0.01000022	          0.09278848	          0.01668516	          0.03408517	          0.01364659	          0.01265904	          0.05688103	          0.17958868	          0.10308800	          0.10883229	          0.04616392	          0.01000008	          0.02080678	          0.03422542	          0.01000005	          0.01000013	          0.05037752	          0.01934509	          0.01754325	          0.07947632	          0.13539545	          0.06153572	          0.01442507	          0.07855085	          0.08052524	          0.06608902	          0.01000001	          0.01000001	          0.01124929	          0.01000000	          0.01000002	          0.01000002	          0.34342767	          0.14965413	          0.08778112	          0.20265092	          0.34987067	          0.03898756	          0.18190344	          0.10820208	          0.06056930	          0.21912749	          0.21680664	          0.15197589	          0.01000020	          0.01000002	          0.01000001	          0.04458223	          0.07507446	          0.01000011	          0.01000003	          0.01000005	          0.01000016	          0.01000007	          0.29951543	          0.01000068	          0.01000029	          0.01442494	          0.01000112	          0.01000019	          0.21685418	          0.34586926	          0.01244209	          0.01225114	          0.04933672	          0.23014302	          0.01000006	          0.01000006	          0.01000004	          0.33256246	          0.36550378	          0.29924486	          0.25029062	          0.30429629	          0.34306672	          0.01239706	          0.01000005	          0.04065893	          0.01000001	          0.01130478	          0.01284442	          0.01201037	          0.01000000	          0.03228012	          0.01510159	          0.06197974	          0.01000001	
          0.02412462	         -2.92789614	         -1.33480826	          2.74678961	          0.03121298	          0.92003779	         -0.00182876	         27.74109024	          3.26812694	          0.79545212	        -11.74557717	          4.26037234	         -2.32778501	          0.20966101	        -15.74497830	          0.30196937	          8.28250470	        -11.42319760	          8.82540685	          9.02058894	         16.78767534	         -5.24110364	          0.33922414	         -1.36957536	        -12.32794651	        -13.45643860	         17.29812685	         24.90017330	          6.80046383	        -13.49573089	         19.36480035	         50.94730733	          0.00999999	          0.01000001	          0.05220438	          0.01000000	          0.01000001	          0.01000002	          0.07725688	          0.03716825	          0.02837976	          0.01732491	          0.01442472	          0.04735989	          0.14952789	          0.15912707	          0.10172818	          0.03843669	          0.01000004	          0.01732420	          0.08284000	          0.01199991	          0.01809194	          0.04194499	          0.01610698	          0.01460674	          0.12788604	          0.11273199	          0.05123543	          0.01201050	          0.06540245	          0.06704635	          0.05502657	          0.01442492	          0.01442495	          0.00999999	          0.01442513	          0.01442506	          0.01442510	          0.28594228	          0.15466816	          0.10085537	          0.16872977	          0.30482225	          0.07564813	          0.15145513	          0.09009044	          0.05043078	          0.18244836	          0.18051599	          0.12653708	          0.01612866	          0.01201035	          0.01201037	          0.03711974	          0.06250798	          0.01201042	          0.01201037	          0.01201038	          0.01201036	          0.01201038	          0.24938040	          0.01413429	          0.01201033	          0.01201053	          0.01200915	          0.01201031	          0.18055557	          0.28797518	          0.01201035	          0.01201033	          0.04107842	          0.27063990	          0.01201038	          0.01201038	          0.01201039	          0.28580696	          0.31666323	          0.27187924	          0.23119936	          0.25336137	          0.30247141	          0.01032195	          0.01000002	          0.05428546	          0.01000001	          0.00999999	          0.01069443	          0.00999999	          0.01000011	          0.02687684	          0.01442492	          0.05160512	          0.01442497	
          0.03618693	         -2.92372225	         -1.59029265	          2.91919001	          0.04715669	          0.91981541	         -0.00158209	         26.99022840	          3.62912075	          0.95334912	        -11.98103555	          2.99090951	         -2.50954432	          0.20048810	        -15.64610396	         -0.05165403	          8.01377877	        -13.18555044	          7.80535459	          9.64409571	         18.13892220	         -5.10228417	          0.74911915	         -1.43665818	        -12.87618456	        -13.47636218	         17.43586990	         24.31597056	          6.36964784	        -13.50921221	         19.33609111	         52.04951446	          0.20206706	          0.20270702	          0.26540886	          0.12325074	          0.01890677	          0.11107175	          0.06432507	          0.03407745	          0.04344408	          0.01442496	          0.01201036	          0.03943246	          0.12449885	          0.13249125	          0.08470022	          0.07848593	          0.01000010	          0.01442455	          0.06897367	          0.01000004	          0.01506360	          0.03688472	          0.01341088	          0.01216176	          0.10647956	          0.09386211	          0.08178181	          0.01000011	          0.09073836	          0.09702887	          0.07406268	          0.01201038	          0.01201040	          0.01201037	          0.01201055	          0.01201051	          0.01201053	          0.42048877	          0.16685170	          0.08397385	          0.38508402	          0.40195343	          0.17553822	          0.19958737	          0.07501046	          0.04198931	          0.26848588	          0.15030001	          0.10535640	          0.01342974	          0.01000001	          0.01000001	          0.03090637	          0.05204498	          0.01000005	          0.01000001	          0.01000001	          0.01000006	          0.01000004	          0.21491209	          0.01176859	          0.01000004	          0.01000028	          0.01000005	          0.01000004	          0.15033332	          0.27994673	          0.01000000	          0.01000003	          0.03420242	          0.22533825	          0.01000002	          0.01000002	          0.01000002	          0.23796652	          0.26365786	          0.22637013	          0.19903781	          0.21095195	          0.25184159	          0.00999999	          0.01001551	          0.07153818	          0.01000001	          0.01000000	          0.01000001	          0.03011889	          0.01128280	          0.02237803	          0.01201037	          0.04296709	          0.01201041	
